<svg width="166" height="32" viewBox="0 0 166 32" fill="none" xmlns="http://www.w3.org/2000/svg">
<g clip-path="url(#clip0_47_17)">
<path d="M21.4162 13.6598C25.42 10.3891 33.5967 -1.39662 20.7959 0.689844C15.2132 1.53571 7.03651 6.94924 5.40117 13.2086C4.55531 11.5169 3.59666 9.93796 2.58162 8.35902C1.00268 6.21616 -0.745445 7.90789 0.946284 10.0507C5.96115 16.1224 8.85251 23.6676 9.17937 31.5357C9.5741 27.7575 8.9538 23.1335 7.43125 18.6222C8.16433 18.8477 9.01019 18.9605 9.74328 18.9605C12.3373 23.2462 16.341 26.9116 20.7959 28.6034C24.9124 30.2387 30.3824 29.2801 28.1267 22.6823C26.9425 19.0733 24.1794 15.9154 21.4162 13.6598ZM21.9801 2.2124C29.0854 1.42293 21.4726 10.2763 18.9914 11.9116C16.6794 10.3891 13.747 9.03571 10.9275 9.43045C12.9576 6.78007 17.92 2.71992 21.9801 2.2124ZM10.8711 11.3477C12.7884 11.1786 14.8749 12.25 16.5102 13.3778C14.9312 14.1673 13.2395 14.6184 11.4914 14.7876C8.89741 14.7876 8.3335 11.5733 10.8711 11.3477ZM20.6831 25.1071C17.3561 24.1485 14.1982 21.4417 11.9425 18.735C13.8034 18.3402 15.6643 17.6071 17.3561 16.5921C17.9764 16.3101 18.5967 15.859 19.1606 15.4643C21.1343 17.2688 23.2207 19.6936 24.0102 22.4568C24.7997 25.4455 22.6568 25.671 20.6831 25.1071Z" fill="#F5A623"/>
<path d="M48.653 6.21617H38.9538C38.6154 6.21617 38.3335 6.49813 38.3335 6.83647H38.2771V22.062C38.2771 22.4004 38.5591 22.6823 38.8974 22.6823C39.1794 22.6823 39.4613 22.4004 39.5177 22.062V15.1823H47.7508C48.0891 15.1823 48.2583 14.9004 48.2583 14.6184C48.2583 14.2801 48.0327 14.1109 47.7508 14.1109H39.4613V7.40038H48.653C48.9914 7.40038 49.1606 7.11843 49.1606 6.83647C49.1606 6.6673 48.9914 6.44173 48.653 6.21617ZM53.1079 5.4267H53.0515C52.7696 5.4267 52.6004 5.65226 52.6004 5.93422V22.0056C52.6004 22.344 52.826 22.5696 53.1079 22.5696C53.4463 22.5696 53.6154 22.2876 53.6154 22.0056V6.047C53.6154 5.65226 53.4463 5.4267 53.1079 5.4267ZM67.1493 11.1786C67.1493 10.8402 66.9237 10.6147 66.6418 10.6147C66.3034 10.6147 66.1342 10.8966 66.1342 11.1786V17.8891C66.1342 20.1447 64.3861 21.9493 62.2433 21.8929C59.9876 21.8929 58.6906 20.3139 58.6906 17.8327V11.1786C58.6906 10.8402 58.4651 10.6147 58.1831 10.6147C57.9576 10.6147 57.6756 10.8966 57.6756 11.1786V18.0019C57.6756 20.8214 59.3673 22.9079 62.1305 22.9079C63.8222 22.9643 65.4012 22.0056 66.1906 20.4267V22.1748C66.1906 22.5132 66.4726 22.6823 66.6982 22.6823C67.0365 22.6823 67.2057 22.4004 67.2057 22.1748H67.1493V11.1786ZM76.4538 11.7425C76.6794 11.7425 76.9613 11.5169 76.9613 11.235C76.9613 11.0094 76.6794 10.7274 76.4538 10.7274H72.9012V7.40038C72.9012 7.11843 72.6192 6.83647 72.3936 6.83647H72.3372C72.0553 6.83647 71.8861 7.11843 71.8861 7.40038V10.7274H70.6455C70.3636 10.7274 70.138 10.8966 70.138 11.1786C70.138 11.4605 70.3636 11.7425 70.6455 11.7425H71.8861V19.5244C71.8861 21.7237 73.2959 22.7951 74.9312 22.7951C75.4951 22.7951 76.0591 22.6823 76.5666 22.5132C76.7357 22.4004 76.9049 22.2312 76.9049 22.0056C76.9049 21.7237 76.6794 21.5545 76.4538 21.5545C76.0591 21.6673 75.6079 21.7237 75.1568 21.7237C73.8034 21.7237 72.9012 21.1034 72.9012 19.4117V11.7425H76.4538ZM85.1944 11.7425C85.4763 11.7425 85.7019 11.5169 85.7019 11.235C85.7019 11.0094 85.4763 10.7274 85.1944 10.7274H81.6418V7.40038C81.6418 7.11843 81.4162 6.83647 81.1342 6.83647H81.0779C80.7959 6.83647 80.6267 7.11843 80.6267 7.40038V10.7274H79.3861C79.1606 10.7274 78.8786 10.8966 78.8786 11.1786C78.8786 11.4605 79.1606 11.7425 79.3861 11.7425H80.6267V19.5244C80.6267 21.7237 82.0365 22.7951 83.7282 22.7951C84.2357 22.7951 84.7997 22.6823 85.3072 22.5132C85.5327 22.4004 85.6455 22.2312 85.6455 22.0056C85.6455 21.7237 85.4763 21.5545 85.1944 21.5545C84.7997 21.6673 84.3485 21.7237 83.8974 21.7237C82.544 21.7237 81.6418 21.1034 81.6418 19.4117V11.7425H85.1944ZM92.92 10.3891C89.9312 10.3891 87.6756 13.0959 87.6756 16.6485V16.7049C87.6756 20.4831 90.1568 22.9643 93.1455 22.9643C94.7245 23.0207 96.3598 22.344 97.4312 21.047C97.6004 20.9342 97.6568 20.765 97.6568 20.6523C97.6568 20.3703 97.3748 20.0884 97.1493 20.0884L96.8109 20.2011C96.3636 20.7227 95.8104 21.1433 95.1883 21.4349C94.5661 21.7266 93.889 21.8827 93.2019 21.8929C91.0027 21.8929 89.029 20.1447 88.8034 17.2124H97.6004C97.826 17.2124 98.1079 16.9305 98.1079 16.6485C98.1079 13.0959 96.0779 10.3891 92.92 10.3891ZM88.747 16.0846C88.9162 13.4906 90.6643 11.4605 92.8636 11.4605C95.4012 11.4605 96.7545 13.6598 96.8673 16.0846H88.747ZM106.736 10.5583C104.706 10.7274 103.014 12.1372 102.281 14.1673V11.235C102.281 11.0094 101.999 10.7274 101.773 10.7274C101.435 10.7274 101.266 10.8966 101.209 11.235V22.2876C101.209 22.5696 101.435 22.8515 101.717 22.8515C101.999 22.8515 102.224 22.6259 102.281 22.2876V17.8891C102.281 13.9981 104.367 12.1372 106.736 11.8553H106.792C107.13 11.8553 107.3 11.5169 107.3 11.235C107.3 10.8402 107.074 10.5583 106.736 10.5583Z" fill="black"/>
<path d="M125.739 9.93797C125.006 9.93797 124.33 10.5019 124.161 11.2914L122.243 17.7199L120.382 11.2914C120.213 10.5019 119.48 9.88158 118.634 9.88158H118.465C117.619 9.88158 116.886 10.3891 116.717 11.2914L114.856 17.6071L113.052 11.235C112.826 10.5019 112.206 9.88158 111.416 9.88158H111.36C110.514 9.88158 109.894 10.6147 109.894 11.5169L110.006 12.3628L112.882 21.2162C113.108 22.1184 113.841 22.7387 114.743 22.7951H114.856C115.702 22.7951 116.379 22.1748 116.661 21.2726L118.521 14.9568L120.382 21.2726C120.608 22.1748 121.341 22.7951 122.187 22.7951H122.356C123.258 22.7951 123.991 22.1748 124.217 21.2162L127.093 12.25L127.262 11.5733V11.5169C127.262 10.6147 126.585 9.93797 125.739 9.93797ZM134.029 9.93797C132.732 9.88158 131.491 10.1635 130.251 10.5583C129.743 10.7838 129.461 11.2914 129.461 11.9117C129.461 12.7575 130.082 13.3778 130.871 13.3214C130.984 13.3214 131.153 13.3214 131.322 13.2086C132.055 12.9831 132.845 12.8703 133.634 12.8703C135.326 12.8703 136.172 13.6598 136.172 15.1823V15.3515C135.27 15.0132 134.255 14.9004 133.296 14.9004C130.533 14.9004 128.615 16.1974 128.615 18.9605C128.615 21.3853 130.476 22.7951 132.619 22.7951C133.973 22.8515 135.27 22.2312 136.172 21.2162C136.228 22.1184 136.905 22.7387 137.751 22.7387C138.653 22.7387 139.386 21.9492 139.386 20.9906V15.3515C139.442 13.9417 138.991 12.4756 138.089 11.4041C137.13 10.5019 135.833 9.93797 134.029 9.93797ZM136.228 18.1147C136.228 19.468 135.1 20.3139 133.578 20.2575C132.506 20.2575 131.773 19.6936 131.773 18.735V18.6786C131.773 17.6071 132.676 16.9305 134.085 16.9305C134.762 16.9305 135.552 17.156 136.228 17.438V18.1147ZM150.833 9.88158C150.157 9.88158 149.48 10.3327 149.311 11.1222L146.717 18.3966L144.236 11.1786C144.01 10.3891 143.39 9.88158 142.6 9.88158C141.755 9.88158 141.078 10.5583 140.965 11.5169C140.965 11.7989 141.078 12.0808 141.191 12.3628L144.8 21.2162C145.025 22.1184 145.758 22.7387 146.661 22.7951H146.886C147.676 22.7387 148.465 22.1748 148.803 21.2726L152.3 12.4192L152.469 11.5733V11.5169C152.469 10.6147 151.792 9.88158 150.833 9.88158ZM159.574 9.82519C156.134 9.82519 153.766 12.7575 153.766 16.3102V16.8741C153.879 20.3139 156.698 22.9643 159.912 22.7951C161.379 22.7951 162.788 22.2876 163.973 21.2726C164.311 20.9906 164.424 20.6523 164.424 20.2575V20.2011C164.424 19.4117 163.86 18.7914 163.127 18.7914C162.845 18.7914 162.563 18.8477 162.337 19.0733C161.68 19.6393 160.836 19.9408 159.969 19.9192C158.559 19.9756 157.318 18.9605 157.149 17.438H163.747C164.593 17.3816 165.27 16.5921 165.213 15.6899V15.4079C165.213 12.3628 162.676 9.71241 159.574 9.82519ZM157.036 15.3515C157.318 13.7162 158.221 12.7011 159.574 12.7011C160.927 12.7011 161.83 13.7726 161.999 15.3515H157.036Z" fill="black" stroke="black" stroke-width="0.056391"/>
</g>
<defs>
<clipPath id="clip0_47_17">
<rect width="165" height="31.1842" fill="white" transform="translate(0.269592 0.407898)"/>
</clipPath>
</defs>
</svg>
